#!OML:ASF \\Waltz\H\Terrain\Patient Classification 1\Animal1\Tuesday\Animal1.ASF
:FULLY-SPECIFIED
:DEGREES
2697
root 7.18031 15.9876 -2.35943 15.166 51.2661 -2.38308
lowerback 19.3278 1.40095 -0.0191352
upperback 5.85534 2.05228 0.871534
thorax -4.52663 1.0756 0.465961
lowerneck -8.26742 -2.38264 -5.67149
upperneck 19.0751 -4.78258 13.7767
head 7.6686 -1.39883 5.11106
rclavicle -6.12257e-014 -4.17448e-014
rhumerus -67.85 28.7891 -87.8645
rradius 32.7494
rwrist -5.49605
rhand -16.606 21.4948
rfingers 7.12502
rthumb 9.61549 351.734
lclavicle -6.12257e-014 -4.17448e-014
lhumerus -72.2088 -17.3259 82.9863
lradius 31.1315
lwrist -28.3166
lhand 14.3119 -327.186
lfingers 7.12502
lthumb 39.2036 1138.28
rfemur -49.0057 1.54152 20.6926
rtibia 74.9313
rfoot -7.52608 -19.7106
rtoes 21.8299
lfemur -44.5189 -6.83762 -20.3491
ltibia 42.0631
lfoot -15.8242 8.915
ltoes -21.6764
2698
root 7.23856 15.9795 -2.32662 14.8585 51.294 -2.46058
lowerback 19.216 1.27129 -0.069736
upperback 5.88543 1.87774 0.917554
thorax -4.43729 0.990827 0.586262
lowerneck -8.52375 -2.29014 -5.71878
upperneck 19.514 -4.67876 13.7467
head 7.84864 -1.33267 5.13262
rclavicle 2.26615e-014 2.92213e-014
rhumerus -67.9353 29.7634 -87.5789
rradius 33.0936
rwrist -6.25001
rhand -15.981 21.1637
rfingers 7.12502
rthumb 10.2185 351.432
lclavicle 2.26615e-014 2.92213e-014
lhumerus -71.1702 -16.6322 80.4766
lradius 30.8394
lwrist -29.8988
lhand 14.0776 -326.166
lfingers 7.12502
lthumb 38.9827 1139.36
rfemur -49.7027 1.71295 20.8371
rtibia 74.4618
rfoot -9.69908 -19.1412
rtoes 26.9951
lfemur -44.2178 -6.57038 -20.5693
ltibia 42.4631
lfoot -15.9564 8.50772
ltoes -20.0501
2699
root 7.30025 15.9781 -2.29544 14.8679 51.2152 -2.18402
lowerback 19.1785 1.25211 -0.222428
upperback 5.81518 1.81937 0.868828
thorax -4.49495 0.961602 0.63413
lowerneck -8.67388 -2.2835 -5.88119
upperneck 19.8503 -4.67728 13.7769
head 7.99101 -1.32501 5.18317
rclavicle -7.59357e-014 2.38542e-015
rhumerus -68.2699 30.3572 -87.4612
rradius 33.4991
rwrist -6.57823
rhand -15.1843 21.1097
rfingers 7.12502
rthumb 10.987 351.417
lclavicle -7.59357e-014 2.38542e-015
lhumerus -70.5023 -16.5313 78.785
lradius 30.7977
lwrist -30.4141
lhand 14.0634 -325.567
lfingers 7.12502
lthumb 38.9693 1139.96
rfemur -50.4103 2.00164 20.5964
rtibia 73.8387
rfoot -8.19154 -18.7128
rtoes 19.4941
lfemur -43.8755 -6.5041 -20.9308
ltibia 42.836
lfoot -16.5424 7.59216
ltoes -14.7986
2700
root 7.35835 15.9725 -2.264 14.6695 51.156 -2.04982
lowerback 19.2251 1.31665 -0.294774
upperback 5.77404 1.89072 0.898182
thorax -4.56753 0.996049 0.688574
lowerneck -8.6363 -2.3423 -6.18031
upperneck 19.9424 -4.74707 13.9242
head 8.03145 -1.365 5.28402
rclavicle 5.9039e-014 -3.37934e-015
rhumerus -68.7436 30.6312 -87.2453
rradius 34.1911
rwrist -6.5431
rhand -13.997 21.4347
rfingers 7.12502
rthumb 12.132 351.806
lclavicle 5.9039e-014 -3.37934e-015
lhumerus -69.9021 -16.7749 77.7552
lradius 30.7713
lwrist -30.4273
lhand 13.9796 -325.567
lfingers 7.12502
lthumb 38.8903 1139.98
rfemur -50.8996 2.41624 20.4251
rtibia 72.9669
rfoot -7.64572 -18.1802
rtoes 18.993
lfemur -43.4475 -6.48627 -21.1834
ltibia 43.1889
lfoot -17.3993 7.07655
ltoes -9.21145
2701
root 7.4149 15.9618 -2.22795 14.3571 51.1651 -2.02849
lowerback 19.2734 1.30138 -0.494394
upperback 5.74865 1.84267 1.04384
thorax -4.62981 0.972548 0.966306
lowerneck -8.53575 -2.29128 -6.31567
upperneck 20.03 -4.65658 13.8831
head 8.03234 -1.33702 5.30548
rclavicle 6.67916e-014 2.56432e-014
rhumerus -69.6761 31.4439 -87.5646
rradius 35.317
rwrist -6.98976
rhand -12.7812 21.4761
rfingers 7.12502
rthumb 13.3041 351.921
lclavicle 6.67916e-014 2.56432e-014
lhumerus -69.6292 -16.7968 77.2149
lradius 30.8837
lwrist -30.0961
lhand 14.1009 -325.239
lfingers 7.12502
lthumb 39.0047 1140.28
rfemur -51.2227 2.80429 20.3778
rtibia 71.8776
rfoot -7.10373 -18.0593
rtoes 17.3353
lfemur -43.0169 -6.25925 -21.4388
ltibia 43.5391
lfoot -18.1974 6.50771
ltoes -3.67009
